<?xml version="1.0" standalone="no"?><!DOCTYPE svg PUBLIC "-//W3C//DTD SVG 1.1//EN" "http://www.w3.org/Graphics/SVG/1.1/DTD/svg11.dtd"><svg t="1723295203286" class="icon" viewBox="0 0 1025 1024" version="1.1" xmlns="http://www.w3.org/2000/svg" p-id="5226" xmlns:xlink="http://www.w3.org/1999/xlink" width="200.1953125" height="200"><path d="M794.444835 1023.90002c-9.098223 0-18.296426-2.299551-26.694786-6.898653L512.899824 876.428822l-254.850224 140.472564c-18.696348 10.297989-41.191955 9.098223-58.688538-3.299355-18.196446-12.897481-27.194689-34.693224-23.595391-56.98887l48.990431-299.341534L17.496583 445.512986C2.19957 429.816052-2.999414 407.020504 3.999219 385.924624c6.798672-20.495997 24.095294-35.193126 44.991213-38.392501L334.3347 304.140598 462.109744 32.593634C471.607889 12.497559 491.004101 0 512.899824 0c21.795743 0 41.291935 12.497559 50.6901 32.593634L691.464948 304.140598 976.809217 347.632103c20.895919 3.199375 38.192541 17.896505 44.991213 38.392502 6.998633 20.995899 1.799649 43.791447-13.497364 59.488381L801.043546 657.271627l48.990432 299.341534c3.699277 22.295645-5.398946 44.191369-23.595392 56.98887-9.598125 6.798672-20.795938 10.297989-31.993751 10.297989z" fill="currentColor" opacity=".65" p-id="5227"></path></svg>