<?xml version="1.0" standalone="no"?><!DOCTYPE svg PUBLIC "-//W3C//DTD SVG 1.1//EN" "http://www.w3.org/Graphics/SVG/1.1/DTD/svg11.dtd"><svg t="1719561711006" class="icon" viewBox="0 0 1024 1024" version="1.1" xmlns="http://www.w3.org/2000/svg" p-id="12632" xmlns:xlink="http://www.w3.org/1999/xlink" width="256" height="256"><path d="M269.824 979.456a92.16 92.16 0 0 1-55.296-18.432A94.208 94.208 0 0 1 176.64 870.4l37.376-219.648-159.744-158.72a94.72 94.72 0 0 1 51.2-161.792l221.184-32.256 100.352-200.192a94.208 94.208 0 0 1 169.984 0l98.816 200.192 221.184 32.256a94.72 94.72 0 0 1 51.2 161.792l-159.744 156.16 38.912 222.208a95.232 95.232 0 0 1-137.728 102.4L512 870.4l-197.632 102.4a97.28 97.28 0 0 1-44.544 6.656zM512 760.832a92.672 92.672 0 0 1 44.544 11.264L743.936 870.4l-35.84-208.896a94.72 94.72 0 0 1 27.648-83.968l153.6-148.48-209.92-30.208a95.232 95.232 0 0 1-71.68-51.2L512 156.672 418.304 346.624a95.232 95.232 0 0 1-71.68 51.2l-209.92 30.208 153.6 148.48a94.72 94.72 0 0 1 27.648 83.968L280.064 870.4l187.904-98.304a89.6 89.6 0 0 1 44.032-11.264z m390.144-329.728z" p-id="12633" fill="#cdcdcd"></path></svg>