<?xml version="1.0" standalone="no"?><!DOCTYPE svg PUBLIC "-//W3C//DTD SVG 1.1//EN" "http://www.w3.org/Graphics/SVG/1.1/DTD/svg11.dtd"><svg t="1719563286890" class="icon" viewBox="0 0 1024 1024" version="1.1" xmlns="http://www.w3.org/2000/svg" p-id="13016" xmlns:xlink="http://www.w3.org/1999/xlink" width="256" height="256"><path d="M955.989333 398.506667a86.357333 86.357333 0 0 0-69.205333-58.197334l-204.672-31.317333-91.605333-194.986667A86.272 86.272 0 0 0 512 64.085333a86.357333 86.357333 0 0 0-78.506667 49.92l-91.605333 194.986667-204.672 31.317333A86.357333 86.357333 0 0 0 68.010667 398.506667a86.357333 86.357333 0 0 0 20.181333 88.106666l150.698667 154.453334-35.584 218.026666a86.826667 86.826667 0 0 0 127.701333 89.898667L512 848.981333l180.992 100.138667a86.826667 86.826667 0 0 0 127.701333-89.898667l-35.584-218.026666 150.698667-154.496c22.784-23.381333 30.506667-57.173333 20.181333-88.192z" fill="#ff5200" opacity=".65" p-id="13017"></path></svg>