<?xml version="1.0" standalone="no"?><!DOCTYPE svg PUBLIC "-//W3C//DTD SVG 1.1//EN" "http://www.w3.org/Graphics/SVG/1.1/DTD/svg11.dtd"><svg t="1711957702806" class="icon" viewBox="0 0 1024 1024" version="1.1" xmlns="http://www.w3.org/2000/svg" p-id="7058" xmlns:xlink="http://www.w3.org/1999/xlink" width="48" height="48"><path d="M558.25 450.162l-84.48-84.48a39.822 39.822 0 0 0-56.32 56.32l84.48 84.48-84.48 84.48a39.822 39.822 0 0 0 56.32 56.32l84.48-84.48 84.48 84.48a39.822 39.822 0 0 0 56.32-56.32l-84.48-84.48 84.48-84.48a39.822 39.822 0 0 0-56.32-56.32l-84.48 84.48zM267.379 34.133h523.378c65.99 0 119.466 53.476 119.466 119.467v716.8a119.467 119.467 0 0 1-119.466 119.467H267.378V34.133z m-39.822 955.62A119.467 119.467 0 0 1 113.778 870.4V153.6A119.467 119.467 0 0 1 227.556 34.247v955.506z" p-id="7059"></path></svg>