<svg t="1709806208874" class="icon" viewBox="0 0 1024 1024" version="1.1" xmlns="http://www.w3.org/2000/svg" p-id="11450" width="48" height="48"><path d="M512 1024C229.2352 1024 0 794.7648 0 512S229.2352 0 512 0s512 229.2352 512 512-229.2352 512-512 512z m-25.6-689.3824v27.1488a25.6 25.6 0 0 0 39.808 21.2992l81.8432-54.5664a25.6 25.6 0 0 0 0-42.5984l-81.856-54.5664A25.6 25.6 0 0 0 486.4 252.6336v30.3744c-115.2 12.736-204.8 110.4-204.8 228.992 0 127.2448 103.1552 230.4 230.4 230.4s230.4-103.1552 230.4-230.4a25.6 25.6 0 1 0-51.2 0c0 98.9696-80.2304 179.2-179.2 179.2s-179.2-80.2304-179.2-179.2c0-90.2784 66.752-164.9664 153.6-177.3824z" fill="currentColor" opacity=".7" p-id="11451"></path></svg>